<svg xmlns="http://www.w3.org/2000/svg" xmlns:xlink="http://www.w3.org/1999/xlink" version="1.1" x="0px" y="0px" width="100px" height="100px" viewBox="0 0 100 100" enable-background="new 0 0 100 100" xml:space="preserve">
<g id="Captions">
	<g>
		<path fill-rule="evenodd" clip-rule="evenodd" d="M87.286,16.105c-1.431-0.834-3.893-2.736-9.511-2.011    c-8.417,1.082-8.236,10.382-10.926,11.035c-8.185,1.992-17.141,12.019-19.479,13.603c-2.336,1.582-5.881,5.75-7.773,7.125    c-1.886,1.376-6.083,6.588-6.083,6.588s-2.357,1.268-2.69,1.637c-0.338,0.363,1.09,0.584,1.09,0.584s-5.089,1.678-5.216,2.496    c-0.128,0.816,2.591,0.021,0.845,0.934C21.7,60.28,2.044,74.448,3.036,74.425c0.771-0.02,5.008-1.725,4.087-1.174    c-0.923,0.555-1.873,3.635-0.948,2.5c1.811-2.225,31.256-17.607,33.33-18.395c2.131-0.049,6.097-0.23,6.097-0.23    s-1.274,1.021-1.507,2.518c-0.235,1.496,7.47,10.65,7.393,12.029c-0.076,1.381-4.7,0.795-5.286,1.643    c-0.561,0.82-0.871,0.902-0.886,2.537c0.837-1.123,0.665-1.174,1.633-1.16c0.977,0.012,1.857-0.215,2.745-0.662    c0.952-0.477,2.903-0.607,3.691-0.844c1.014-0.303,1.905-0.084,3.425,0.014c1.517,0.1,1.341-0.502,2.028-0.52    c0.08,0,1.137-0.129,1.244-0.111c0.354,0.025,0.616-0.174,0.273-0.279c-2.113-0.658-5.281-0.441-6.443-0.623    c-1.358-0.215-5.519-9.227-6.479-10.213c-0.962-0.984,1.02-4.508,1.678-4.266c0.659,0.242,3.064,0.234,3.064,0.234    s-1.596,2.641-2.047,3.063c-0.611,0.564,2.727,2.826,4.135,3.607c1.412,0.779,10.486,7.5,9.84,7.465    c-1.088-0.059-3.543,1.09-3.629,1.146c-0.007,0-1.678,1.066-1.503,1.986c1.199-1.234,1.981-1.41,1.981-1.41    s1.129,0.047,2.234-0.357c0.797-0.297,1.89-0.152,3.094-0.156c1.988,0,4.472,1.143,6.226,1.078    c0.798,0.223,0.896,0.496,1.043,1.111c0.146-0.477,0.238-0.49-0.163-1.283c-0.389-0.777-1.805-1.365-5.162-1.959    C65.997,71.054,53.42,62.14,53.6,61.237c0.173-0.881,1.607-1.387,2.377-1.822c0.766-0.439,2.188-2.969,2.188-2.969    c14.997-2.666,21.854-16.748,22.479-18.843c0.693-0.72,0.884-5.851,0.186-8.502c0.042-2.268,0.737-3.925,0.999-4.167    c0.651-0.596,5.604-3.754,6.125-4.648c0.789-0.573,6.492-0.969,8.737-2.813C95.569,15.94,88.597,16.868,87.286,16.105z"/>
	</g>
</g>
<g id="Your_Icon">
</g>
</svg>