<svg xmlns="http://www.w3.org/2000/svg" xmlns:xlink="http://www.w3.org/1999/xlink" version="1.1" id="Capa_1" x="0px" y="0px" width="100.0px" height="100px" viewBox="0 0 120 120" enable-background="new 0 0 120 120" xml:space="preserve">
<g>
	<path d="M97.563,56.494h-4.429h-4.195H10l0.211,4.193c0.116,2.31,1.236,22.767,4.566,29.737   c5.646,11.802,17.476,18.571,32.462,18.571h8.655c14.986,0,26.816-6.77,32.462-18.571c0.197-0.413,0.384-0.878,0.566-1.379h8.64   c6.858,0,12.438-5.58,12.438-12.438v-7.674C110,62.075,104.421,56.494,97.563,56.494z M81.155,86.981   c-4.328,9.051-13.298,14.033-25.261,14.033h-8.655c-11.963,0-20.933-4.982-25.261-14.033c-1.684-3.517-2.938-14.339-3.535-22.506   H84.69C84.093,72.643,82.839,83.465,81.155,86.981z M102.021,76.606c0,2.458-2.001,4.458-4.458,4.458H90.84   c0.987-5.824,1.559-12.456,1.85-16.589h4.873c2.457,0,4.458,2,4.458,4.457V76.606z"/>
	<path d="M35.136,32.522c0.479,2.356-0.233,3.603-1.759,5.978c-1.903,2.969-4.515,7.032-1.704,13.472   c0.655,1.499,2.123,2.395,3.66,2.395c0.533,0,1.073-0.106,1.593-0.335c2.021-0.881,2.943-3.231,2.063-5.252   c-1.104-2.528-0.504-3.466,1.104-5.967c1.69-2.637,4.008-6.242,2.862-11.879c-0.288-1.418-1.063-2.642-1.883-3.938   c-1.712-2.707-3.655-5.772-2.217-10.926c0.596-2.12-0.646-4.323-2.769-4.915s-4.325,0.645-4.915,2.769   c-2.396,8.567,1.219,14.275,3.159,17.34C34.65,31.769,35.089,32.463,35.136,32.522z"/>
	<path d="M51.396,32.522c0.478,2.356-0.234,3.603-1.759,5.978c-1.907,2.969-4.515,7.032-1.704,13.472   c0.654,1.499,2.122,2.395,3.66,2.395c0.532,0,1.073-0.106,1.593-0.335c2.021-0.881,2.942-3.231,2.063-5.252   c-1.104-2.528-0.504-3.466,1.104-5.967c1.691-2.637,4.009-6.242,2.863-11.879c-0.289-1.418-1.063-2.642-1.884-3.938   c-1.712-2.707-3.655-5.772-2.216-10.926c0.595-2.12-0.646-4.323-2.77-4.915c-2.122-0.592-4.325,0.645-4.915,2.769   c-2.395,8.567,1.219,14.275,3.159,17.34C50.909,31.769,51.349,32.463,51.396,32.522z"/>
	<path d="M66.437,32.522c0.478,2.356-0.234,3.603-1.759,5.978c-1.907,2.969-4.515,7.032-1.704,13.472   c0.654,1.499,2.122,2.395,3.66,2.395c0.532,0,1.073-0.106,1.593-0.335c2.021-0.881,2.943-3.231,2.063-5.252   c-1.104-2.528-0.504-3.466,1.104-5.967c1.691-2.637,4.009-6.242,2.863-11.879c-0.289-1.418-1.063-2.642-1.884-3.938   c-1.712-2.707-3.655-5.772-2.216-10.926c0.595-2.12-0.646-4.323-2.77-4.915c-2.122-0.592-4.325,0.645-4.914,2.769   c-2.396,8.567,1.218,14.275,3.158,17.34C65.95,31.769,66.39,32.463,66.437,32.522z"/>
</g>
</svg>