<?xml version="1.0" encoding="UTF-8" standalone="no"?>
<svg
   xmlns:dc="http://purl.org/dc/elements/1.1/"
   xmlns:cc="http://creativecommons.org/ns#"
   xmlns:rdf="http://www.w3.org/1999/02/22-rdf-syntax-ns#"
   xmlns:svg="http://www.w3.org/2000/svg"
   xmlns="http://www.w3.org/2000/svg"
   xmlns:sodipodi="http://sodipodi.sourceforge.net/DTD/sodipodi-0.dtd"
   xmlns:inkscape="http://www.inkscape.org/namespaces/inkscape"
   version="1.1"
   id="Layer_1"
   x="0px"
   y="0px"
   width="100.003"
   height="100"
   viewBox="0 0 100.003 99.999999"
   enable-background="new 0 0 100.003 62.436"
   xml:space="preserve"
   inkscape:version="0.48.3.1 r9886"
   sodipodi:docname="cricket.svg"><metadata
   id="metadata3036"><rdf:RDF><cc:Work
       rdf:about=""><dc:format>image/svg+xml</dc:format><dc:type
         rdf:resource="http://purl.org/dc/dcmitype/StillImage" /></cc:Work></rdf:RDF></metadata><defs
   id="defs3034" /><sodipodi:namedview
   pagecolor="#ffffff"
   bordercolor="#666666"
   borderopacity="1"
   objecttolerance="10"
   gridtolerance="10"
   guidetolerance="10"
   inkscape:pageopacity="0"
   inkscape:pageshadow="2"
   inkscape:window-width="1366"
   inkscape:window-height="713"
   id="namedview3032"
   showgrid="false"
   inkscape:zoom="2.1782305"
   inkscape:cx="200.64589"
   inkscape:cy="-16.046095"
   inkscape:window-x="0"
   inkscape:window-y="1"
   inkscape:window-maximized="1"
   inkscape:current-layer="Layer_1" />
<path
   clip-rule="evenodd"
   d="m 87.804,50.575609 c 0,0 -18.323,-35.914 -58.593,-31.401 0,0 37.709,-5.878 60.197,31.963 l -1.604,-0.562 z m 0,0 c -0.921,-0.354 -0.616,0.073 -1.555,0.22 -0.903,0.158 -2.073,-0.231 -2.86,0.476 -0.22,0.195 -0.152,0.512 -0.47,0.366 -0.243,-0.086 -0.463,-0.208 -0.719,-0.281 -0.622,-0.134 -1.146,-0.146 -1.774,-0.098 -3.305,0.293 -6.47,-0.402 -9.737,-0.146 -4.122,0.316 -8.232,0.207 -12.36,0.378 -0.542,0.024 -1.061,0.073 -1.591,0.073 -0.684,0 -0.939,0.219 -1.421,-0.342 -0.701,-0.78 -1.286,-1.72 -2.03,-2.476 -1.533,-1.598 -3.125,-2.976 -4.466,-4.768 -0.644,-0.841 -1.29,-1.683 -1.936,-2.537 -0.625,-0.829 -1.394,-1.39 -2.122,-2.146 -1.61,-1.646 -3.341,-3.707 -5.622,-4.341 -1.171,-0.329 -1.951,0.634 -2.083,1.83 -0.076,0.683 -2.481,6.122 -2.323,6.085 -0.39,0.085 -0.064,0.963 -0.722,1 -2.183,0.171 -2.689,-4.305 -5.232,-3.39 -1.229,0.427 -2.149,2.28 -1.619,3.5 0.302,0.695 0.759,1.17 0,1.756 -0.607,0.476 -3.207,3.829 -2.899,3.744 -0.207,0.048 -0.628,0.902 -0.826,1.097 -0.381,0.354 -0.744,0.562 -1.244,0.695 -1.076,0.293 -2.445,0.158 -3.54,0.024 -1.052,-0.109 -2.052,-0.354 -3.104,-0.244 -1.104,0.086 -2.104,0.513 -3.009,1.195 -0.439,0.329 -0.78,0.658 -1.134,1.073 -0.338,0.402 -0.36,1.183 -0.476,1.695 -1.055,4.561 3.631,3.572 5.762,4.902 0.716,0.438 -1.265,2.683 -1.421,3.158 -0.079,0.244 -0.155,0.476 -0.265,0.707 -0.219,0.476 -0.21,0.391 -0.686,0.22 -3.466,-1.244 -6.869,-2.561 -10.146,-4.231 -0.271,-0.135 -0.412,-0.305 -0.567,0.036 -0.076,0.159 -0.113,0.354 -0.043,0.524 1.244,3 5.451,3.646 7.945,5.28 0.384,0.244 0.765,0.5 1.183,0.72 0.948,0.487 0.918,0.464 0.524,1.476 -0.47,1.158 -1.061,2.329 -1.637,3.463 -0.412,0.781 -0.915,1.732 -1.198,2.562 -0.204,0.598 -0.271,1.598 -0.731,2.073 -0.43,0.438 -1.378,0.743 -1.915,1.061 -0.881,0.537 -1.872,0.854 -2.723,1.427 -1.119,0.769 -1.765,0.964 -3.073,1.098 -0.384,0.049 -2.628,0.902 -1.729,1.707 0.208,0.195 1.902,-1.024 2.287,-1.134 -0.268,0.391 2.954,-0.854 3.116,-0.988 0.427,-0.341 3.564,-1.427 3.988,-1.585 0.375,-0.134 2.344,0.158 2.479,-0.695 0.098,-0.609 0.058,-1.292 0.253,-1.878 0.171,-0.512 0.869,-2.22 1.04,-2.658 0.32,-0.78 1.83,-4.683 2.107,-4.756 0.155,-0.049 0.64,0.378 0.851,0.438 3.223,1 6.591,1.513 9.954,1.073 0.192,-0.036 1.957,-0.365 1.899,-0.098 -0.174,0.732 -0.918,3.646 0.25,4.171 -0.82,0.451 -2.061,0.927 -2.976,1.073 -1.159,0.207 -2.394,0.609 -3.573,0.72 -0.71,0.085 -3.915,2.109 -4.11,2.646 1.634,-0.879 3.348,-1.244 5.125,-1.708 0.537,-0.146 6.729,-2.049 6.698,-1.731 0.067,-0.573 0.109,-1.134 0.29,-1.683 0.149,-0.488 0.079,-1.024 0.238,-1.488 0.167,-0.512 0.317,-1.036 0.476,-1.573 0.159,-0.536 0.25,-1.134 0.896,-0.914 1.509,0.512 2.862,1.402 4.39,1.89 4.192,1.33 20.448,2.086 21.997,0.806 0.098,0.756 -0.659,1.061 -0.659,1.634 0,0.354 0.415,0.463 0.494,0.78 -0.036,-0.134 -6.832,1.549 -7.46,1.915 -0.61,0.354 -1.021,0.621 -1.628,0.927 -0.771,0.378 -1.457,0.841 -1.811,1.683 1.369,0.024 2.167,-0.488 2.838,-1.036 0.271,-0.22 0.96,-0.415 1.253,-0.598 1.457,-0.806 5.674,-1.464 6.088,-1.61 0.232,-0.073 0.445,-0.158 0.665,-0.268 0.378,-0.184 0.451,-0.269 0.731,-0.024 0.158,0.134 0.634,-0.281 0.646,-0.379 0.061,-0.476 0.146,-0.963 0.183,-1.451 0.062,-0.719 -0.098,-2.792 0.793,-2.854 8.207,-0.597 18.273,-3.438 18.597,-3.476 0.726,-0.097 0.769,0.33 1.098,0.928 0.22,0.39 0.391,0.902 0.47,1.341 0.104,0.573 0.214,1.146 0.372,1.707 0.188,0.757 0.744,0.61 1.085,0.671 2.817,0.659 5.756,0.256 8.609,0.146 -0.177,0.329 1.598,0 2.47,0.146 0.921,0.158 1.274,0.817 2.079,1.207 0.646,0.305 1.391,0.207 2.037,0.488 0.707,0.316 2.816,0.17 3.012,0.463 0.207,-0.244 0.231,-0.561 -0.061,-0.744 -1.226,-0.572 -2.47,-0.683 -3.684,-1.158 -1.341,-0.549 -2.555,-1.329 -3.829,-1.987 -0.664,-0.342 -0.555,-2.329 -0.713,-3.024 -0.226,-1 -0.366,-2.317 -0.957,-3.171 -0.366,-0.524 -0.513,-0.756 -0.195,-1.329 0.244,-0.427 0.604,-0.854 0.731,-1.317 0.585,-2.061 0.927,-4.524 0.061,-6.561 -0.311,-0.731 -1.427,-2.354 -1.792,-3.036 m -63.496,-1.232 c -0.213,0.451 -0.442,0.915 -0.662,1.366 1.631,-0.158 3.244,-0.22 4.881,-0.22 0.399,0 0.927,0.086 0.927,-0.365 0,-0.306 0.646,-0.574 0.839,-0.854 0.503,-0.744 0.726,-1.549 0.997,-2.415 -0.17,0.317 0.247,-0.769 0.445,-0.976 -0.738,-0.5 -1.72,-1.488 -2.595,-1.683 -0.866,-0.183 -2.631,2.281 -2.75,2.415 m 10.414,-7.158 c -0.75,1.549 -1.287,3.207 -1.981,4.78 -0.299,0.683 0.03,0.683 0.591,1.073 0.308,0.207 0.585,0.476 0.875,0.72 0.674,0.561 1.338,0.902 2.131,1.244 1.649,0.695 2.811,1.939 4.29,2.89 0.662,0.427 1.503,1.098 2.29,1.231 1.031,0.184 1.72,0.159 2.756,0 -1.18,-3.195 -2.406,-6.341 -4.28,-9.183 -0.793,-1.183 -1.848,-2.731 -3.141,-3.39 -0.722,-0.354 -1.29,-0.963 -2.134,-1.024 -0.598,-0.049 -0.592,0.146 -0.869,0.671 -0.18,0.329 -0.354,0.659 -0.528,0.988 m -2.134,8.768 c -0.387,-0.305 -0.769,-0.585 -1.18,-0.841 -0.384,1.012 -0.695,2 -1.244,2.951 1.984,0.207 4.006,0.316 5.954,0.756 -1.118,-1 -2.228,-2.134 -3.53,-2.866 m -19.033,15.622 c -0.088,0.073 -0.156,0.22 -0.22,0.305 2.269,0.231 4.546,0.305 6.805,0.549 1.134,0.109 2.345,0.086 3.479,-0.024 0.424,-0.036 1.323,-0.085 1.631,-0.366 0.463,-0.39 0.692,-2.354 0.652,-2.499 -0.137,-0.488 -1.552,-0.415 -1.902,-0.451 -0.713,-0.11 -1.421,-0.379 -2.146,-0.379 -0.731,0 -1.436,-0.012 -2.162,-0.134 -1.344,-0.195 -2.954,-1.012 -4.298,-0.317 -0.5,0.257 -1.174,1.073 -1.174,1.659 0,0.717 -0.54,0.95 -0.665,1.657 m 72.617,5.744 c 0.207,-0.062 0.677,-0.024 0.64,-0.281 -0.055,-0.365 -0.104,-0.743 -0.164,-1.109 -0.079,-0.524 -0.195,-1.061 -0.305,-1.585 -0.208,-1.013 -0.549,-1.891 -0.988,-2.854 -0.317,0.451 -0.688,1.219 -1.134,1.487 -0.562,0.317 -1.244,0.317 -1.891,0.402 -0.555,0.073 -0.878,-1.207 -0.938,-1.573 -0.11,-0.72 -0.135,-1.268 -0.372,-1.976 -0.506,0.22 -0.677,0.024 -1.177,0.28 -0.366,0.184 -0.78,0.306 -1.165,0.488 -0.487,0.195 -0.811,0.585 -1.256,0.829 -0.104,0.062 -0.177,0.183 -0.299,0.22 -0.085,0.036 -0.274,-0.122 -0.365,-0.073 -0.171,0.073 -0.293,0.195 -0.366,0.378 -0.146,0.415 0.231,0.902 0.402,1.293 0.317,0.72 0.641,1.438 0.963,2.171 0.135,0.316 0.269,0.914 0.549,1.121 0.33,0.269 1.458,0.671 2.062,0.708"
   id="path3030"
   inkscape:connector-curvature="0"
   style="fill-rule:evenodd" />
</svg>