<svg xmlns="http://www.w3.org/2000/svg" xmlns:xlink="http://www.w3.org/1999/xlink" version="1.1" id="Your_Icon" x="0px" y="0px" width="100px" height="100px" viewBox="0 0 100 100" enable-background="new 0 0 100 100" xml:space="preserve">
<path d="M70.648,19.656c0,0-1.046,2.302-0.837,4.602c0.209,2.301,2.72,3.137,2.72,3.137s1.198-3.301,0.326-5.232  C71.986,20.231,70.648,19.656,70.648,19.656z"/>
<path d="M83.446,54.733c-2.389-16.672-11.125-22.944-11.125-22.944s4.637,8.959-5.199,17.475c-0.864-2.816-2.02-5.574-3.306-8.243  c-4.519-9.386,0.648-14.836-0.229-23.53C62.71,8.798,57.907,0,51.997,0c0,0,5.604,4.851,1.738,13.557  c-1.941,4.995-7.05,6.853-11.926,14.748c-4.877,7.896-3.548,12.527-4.742,16.324c-6.14-6.857,1.758-19.799-3.657-26.229  c0.736,9.673-7.393,10.371-13.807,25.942C8.483,78.702,23.347,100,51.234,100C73.741,100.001,87.327,83.114,83.446,54.733z   M74.502,71.697C71.534,85.456,62.943,91.01,49.704,91.01c-12.618,0-22.993-10.372-22.993-26.962  c-0.408-9.561,2.315-14.933,5.774-19.409c0.312,8.324,3.597,11.317,6.759,13.155c1.001-8.692,11.094-13.275,11.472-24.641  c2.645,0,10.945,10.266,9.207,18.61c-1.328,6.374,3.202,12.083,3.202,12.083c6.379-0.388,8.813-9.521,8.813-9.521  S76.28,61.347,74.502,71.697z"/>
</svg>