<svg xmlns="http://www.w3.org/2000/svg" xmlns:xlink="http://www.w3.org/1999/xlink" version="1.1" id="Layer_1" x="0px" y="0px" width="100px" height="100px" viewBox="0 0 100 100" enable-background="new 0 0 100 100" xml:space="preserve">
<path d="M50,6c-2.71,0-22.86,27.14-22.86,51.43c0,14.94,9.18,27.2,20.86,28.45V94h4v-8.12c12-1.25,20.86-13.51,20.86-28.45  C72.86,33.14,53,6,50,6z M48,81.87c-8.72-1.16-15.7-9.78-16.72-21.44L48,77.16V81.87z M48,71.5L31.23,54.73  c0.18-2.671,0.62-5.391,1.25-8.09L48,62.16V71.5z M48,56.5L33.68,42.18c0.72-2.34,1.55-4.65,2.46-6.88L48,47.16V56.5z M48,41.5  L37.85,31.34c1.01-2.2,2.06-4.29,3.11-6.23L48,32.16V41.5z M48,26.5l-4.99-4.99c1.91-3.24,3.69-5.83,4.99-7.48V26.5z M52,14.03  c1,1.65,3.08,4.24,4.99,7.48L52,26.5V14.03z M52,32.16l7.11-7.05c1.05,1.94,2.069,4.03,3.08,6.23L52,41.5V32.16z M52,47.16  L63.93,35.3c0.91,2.23,1.7,4.54,2.431,6.88L52,56.5V47.16z M52,62.16l15.59-15.52c0.63,2.7,1.03,5.419,1.21,8.09L52,71.5V62.16z   M52,81.87v-4.71l16.72-16.73C67.7,72.09,61,80.71,52,81.87z"/>
</svg>