<?xml version="1.0" encoding="UTF-8" standalone="no"?>
<svg
   xmlns:dc="http://purl.org/dc/elements/1.1/"
   xmlns:cc="http://creativecommons.org/ns#"
   xmlns:rdf="http://www.w3.org/1999/02/22-rdf-syntax-ns#"
   xmlns:svg="http://www.w3.org/2000/svg"
   xmlns="http://www.w3.org/2000/svg"
   xmlns:sodipodi="http://sodipodi.sourceforge.net/DTD/sodipodi-0.dtd"
   xmlns:inkscape="http://www.inkscape.org/namespaces/inkscape"
   version="1.1"
   id="Laag_1"
   x="0px"
   y="0px"
   width="100px"
   height="100px"
   viewBox="0 0 100 100"
   enable-background="new 0 0 100 100"
   xml:space="preserve"
   inkscape:version="0.48.3.1 r9886"
   sodipodi:docname="owl.svg"><metadata
   id="metadata3096"><rdf:RDF><cc:Work
       rdf:about=""><dc:format>image/svg+xml</dc:format><dc:type
         rdf:resource="http://purl.org/dc/dcmitype/StillImage" /></cc:Work></rdf:RDF></metadata><defs
   id="defs3094">
	
	
	
	
	
	
	
	
	
	
	
	
	
	
	
	
	
	
	
	
	
	
	
	
	
	
	
	
	
	
	
	
	
	
	
	
	
	
	
	
	
	
</defs><sodipodi:namedview
   pagecolor="#ffffff"
   bordercolor="#666666"
   borderopacity="1"
   objecttolerance="10"
   gridtolerance="10"
   guidetolerance="10"
   inkscape:pageopacity="0"
   inkscape:pageshadow="2"
   inkscape:window-width="1366"
   inkscape:window-height="713"
   id="namedview3092"
   showgrid="false"
   inkscape:zoom="1.36"
   inkscape:cx="96.180415"
   inkscape:cy="68.614726"
   inkscape:window-x="0"
   inkscape:window-y="1"
   inkscape:window-maximized="1"
   inkscape:current-layer="Laag_1" />

<g
   id="Your_Icon">
	<path
   d="M76.622,55.396c2.752-9.655-0.171-18.236-6.938-23.712c1.934-2.874,3.045-6.207,3.045-9.765   c0-4.792-2.01-9.179-5.34-12.579c0.473-3.113,0.943-6.227,1.416-9.34c-2.35,1.859-4.33,3.794-5.957,5.801   C59.193,3.643,54.77,2.377,50,2.377c-4.77,0-9.193,1.266-12.849,3.423c-1.626-2.007-3.606-3.941-5.954-5.8   c0.472,3.112,0.943,6.225,1.415,9.338c-3.332,3.399-5.343,7.787-5.343,12.581c0,3.559,1.112,6.893,3.046,9.766   c-6.766,5.477-9.688,14.057-6.938,23.711c2.805,9.842,8.163,18.576,14.147,24.033c-1.915,5.896-3.83,11.789-5.746,17.684   c11.842,3.85,24.599,3.85,36.441,0c-1.914-5.895-3.83-11.788-5.746-17.684C68.459,73.971,73.816,65.238,76.622,55.396z    M40.156,28.497c-4.296,0-7.776-3.48-7.776-7.775s3.48-7.776,7.776-7.776c4.294,0,7.775,3.481,7.775,7.776   C47.932,25.017,44.451,28.497,40.156,28.497z M59.846,28.497c-4.295,0-7.775-3.48-7.775-7.775s3.48-7.776,7.775-7.776   c4.293,0,7.775,3.481,7.775,7.776S64.139,28.497,59.846,28.497z"
   id="path3086" />
</g>
<circle
   cx="40.156"
   cy="20.722"
   r="3.585"
   id="circle3088" />
<circle
   cx="59.846"
   cy="20.722"
   r="3.586"
   id="circle3090" />
</svg>