<svg xmlns="http://www.w3.org/2000/svg" xmlns:xlink="http://www.w3.org/1999/xlink" version="1.1" x="0px" y="0px" width="100px" height="100px" viewBox="-63.5 817.5 100 100" enable-background="new -63.5 817.5 100 100" xml:space="preserve">
<g id="Layer_2_1_">
</g>
<g id="Layer_1">
	<g>
		<g>
			<g>
				<path fill-rule="evenodd" clip-rule="evenodd" d="M21.599,891.905c-3.692,0.27-6.587-1.547-9.471-3.486      c-0.47-0.315-1.471-0.387-1.924-0.099c-4.82,3.067-10.031,4.42-15.618,3.113c-2.395-0.561-4.633-1.904-6.847-3.076      c-1.01-0.534-1.623-0.549-2.625,0.068c-2.421,1.49-4.927,2.938-7.867,3.131c-1.666,0.109-3.343,0.05-5.016,0.024      c-3.106-0.046-5.713-1.448-8.197-3.126c-1.244-0.839-2.365-0.882-3.629,0.025c-3.05,2.19-6.421,3.508-10.249,3.316      c-1.529-0.075-3.173-1.642-3.297-3.038c-0.112-1.268,1.357-2.771,2.996-3.062c3.657-0.65,6.888-1.909,9.247-5.094      c1.68-2.27,5.168-1.802,6.882,0.476c2.511,3.338,5.869,5.334,10.099,4.568c2.885-0.521,5.417-2.148,7.246-4.612      c1.467-1.978,4.529-2.312,6.126-0.488c1.775,2.027,3.73,3.903,6.292,4.593c1.962,0.527,4.282,0.704,6.202,0.171      c2.521-0.701,4.617-2.48,6.267-4.651c1.37-1.801,4.503-1.524,5.951,0.277c2.257,2.809,5.06,4.759,8.821,5.079      c0.85,0.071,2.016,0.419,2.4,1.036c0.575,0.926,0.87,2.239,0.724,3.311c-0.076,0.556-1.308,1.094-2.11,1.366      C23.264,891.977,22.404,891.86,21.599,891.905z"/>
			</g>
		</g>
		<g>
			<g>
				<path fill-rule="evenodd" clip-rule="evenodd" d="M21.599,874.18c-3.692,0.27-6.587-1.547-9.471-3.485      c-0.47-0.316-1.471-0.389-1.924-0.1c-4.82,3.068-10.031,4.42-15.618,3.113c-2.395-0.561-4.633-1.904-6.847-3.075      c-1.01-0.535-1.623-0.549-2.625,0.068c-2.421,1.49-4.927,2.938-7.867,3.131c-1.666,0.108-3.343,0.05-5.016,0.024      c-3.106-0.046-5.713-1.449-8.197-3.126c-1.244-0.839-2.365-0.883-3.629,0.024c-3.05,2.19-6.421,3.509-10.249,3.317      c-1.529-0.076-3.173-1.643-3.297-3.039c-0.112-1.268,1.357-2.77,2.996-3.061c3.657-0.651,6.888-1.91,9.247-5.095      c1.68-2.27,5.168-1.801,6.882,0.477c2.511,3.337,5.869,5.333,10.099,4.567c2.885-0.521,5.417-2.147,7.246-4.611      c1.467-1.978,4.529-2.313,6.126-0.488c1.775,2.027,3.73,3.902,6.292,4.591c1.962,0.529,4.282,0.705,6.202,0.172      c2.521-0.701,4.617-2.48,6.267-4.65c1.37-1.802,4.503-1.524,5.951,0.277c2.257,2.808,5.06,4.759,8.821,5.078      c0.85,0.072,2.016,0.419,2.4,1.036c0.575,0.925,0.87,2.239,0.724,3.312c-0.076,0.555-1.308,1.093-2.11,1.366      C23.264,874.254,22.404,874.136,21.599,874.18z"/>
			</g>
		</g>
		<g>
			<g>
				<path fill-rule="evenodd" clip-rule="evenodd" d="M21.599,855.855c-3.692,0.271-6.587-1.546-9.471-3.485      c-0.47-0.316-1.471-0.388-1.924-0.099c-4.82,3.068-10.031,4.42-15.618,3.112c-2.395-0.56-4.633-1.904-6.847-3.075      c-1.01-0.535-1.623-0.549-2.625,0.068c-2.421,1.491-4.927,2.938-7.867,3.131c-1.666,0.109-3.343,0.05-5.016,0.024      c-3.106-0.045-5.713-1.449-8.197-3.125c-1.244-0.84-2.365-0.883-3.629,0.024c-3.05,2.19-6.421,3.508-10.249,3.316      c-1.529-0.076-3.173-1.643-3.297-3.039c-0.112-1.267,1.357-2.77,2.996-3.061c3.657-0.651,6.888-1.909,9.247-5.095      c1.68-2.269,5.168-1.802,6.882,0.477c2.511,3.338,5.869,5.334,10.099,4.568c2.885-0.522,5.417-2.147,7.246-4.612      c1.467-1.977,4.529-2.312,6.126-0.488c1.775,2.027,3.73,3.902,6.292,4.592c1.962,0.528,4.282,0.705,6.202,0.172      c2.521-0.701,4.617-2.481,6.267-4.651c1.37-1.802,4.503-1.524,5.951,0.277c2.257,2.809,5.06,4.76,8.821,5.078      c0.85,0.072,2.016,0.42,2.4,1.037c0.575,0.925,0.87,2.239,0.724,3.311c-0.076,0.556-1.308,1.093-2.11,1.366      C23.264,855.929,22.404,855.811,21.599,855.855z"/>
			</g>
		</g>
	</g>
</g>
</svg>